<svg xmlns="http://www.w3.org/2000/svg" viewBox="0 0 433.309 433.309" style="enable-background:new 0 0 433.309 433.309" xml:space="preserve" width="512" height="512"><path style="fill:#fedd3d" d="M103.289 248.143c13.021 13.027 34.147 13.031 47.173-.006 13.034-13.021 13.029-34.15.004-47.171-13.027-13.035-57.743-36.623-70.767-23.593-13.036 13.029 10.555 57.741 23.59 70.77z"/><path style="opacity:.1;fill:#222" d="M79.699 177.373c-13.036 13.029 10.555 57.741 23.59 70.77 13.021 13.027 34.147 13.031 47.173-.006l-70.763-70.764z"/><path style="opacity:.1;fill:#222" d="M150.466 200.966c-1.832-1.833-4.306-3.876-7.214-5.996-17.583 13.982-31.088 32.87-38.435 54.601 13.098 11.575 33.116 11.106 45.644-1.434 13.035-13.021 13.03-34.151.005-47.171z"/><path style="fill:#fedd3d" d="M330.018 248.143c-13.021 13.027-34.146 13.031-47.173-.006-13.032-13.021-13.029-34.15-.003-47.171 13.027-13.035 57.743-36.623 70.768-23.593 13.035 13.029-10.555 57.741-23.592 70.77z"/><path style="opacity:.1;fill:#222" d="M353.609 177.373c13.035 13.029-10.555 57.741-23.592 70.77-13.021 13.027-34.146 13.031-47.173-.006l70.765-70.764z"/><path style="opacity:.1;fill:#222" d="M282.842 200.966c1.832-1.833 4.305-3.876 7.214-5.996 17.583 13.982 31.089 32.87 38.434 54.601-13.098 11.575-33.116 11.106-45.646-1.434-13.031-13.021-13.029-34.151-.002-47.171z"/><circle style="fill:#fedd3d" cx="216.653" cy="287.394" r="112.049"/><path style="opacity:.1;fill:#222" d="M216.654 175.345c-61.884 0-112.05 50.166-112.05 112.049 0 61.882 50.166 112.048 112.05 112.048V175.345z"/><path style="opacity:.1;fill:#222" d="m324.878 258.295-24.888-24.888-41.669 41.667-41.666-41.667-41.667 41.667-41.668-41.667-24.892 24.893a112.185 112.185 0 0 0-3.823 29.094c0 61.882 50.166 112.048 112.05 112.048 61.881 0 112.048-50.166 112.048-112.048a112.272 112.272 0 0 0-3.825-29.099zm-108.224-82.95c-23.66 0-45.603 7.34-63.689 19.857 17.316 14.266 39.501 22.835 63.689 22.835 24.185 0 46.371-8.569 63.686-22.835-18.084-12.517-40.028-19.857-63.686-19.857z"/><path style="fill:#d66b35" d="M296.495 117.81h33.675l-33.675 28.942z"/><path style="fill:#ff7f3f" d="M296.495 117.81h33.675l-33.675-28.943z"/><path style="fill:#fedd3d" d="M236.774 10.702c0-5.91-4.791-10.702-10.703-10.702-5.909 0-10.701 4.792-10.701 10.702 0 5.909 4.792 23.972 10.701 23.972 5.912 0 10.703-18.063 10.703-23.972z"/><path style="fill:#fedd3d" d="M210.969 9.106c-4.179-4.18-10.956-4.181-15.135 0-4.18 4.179-4.18 10.956 0 15.135 4.179 4.181 20.338 13.563 24.517 9.383 4.182-4.179-5.202-20.339-9.382-24.518z"/><circle style="fill:#fedd3d" cx="216.654" cy="117.81" r="89.361"/><path style="opacity:.1;fill:#222" d="M216.654 28.448c-49.354 0-89.361 40.007-89.361 89.361 0 49.352 40.008 89.36 89.361 89.36V28.448z"/><circle style="fill:#333e48" cx="265.089" cy="94.328" r="8.625"/><path style="fill:#d8d2c4" d="m299.99 241.195-41.669 41.667-41.666-41.667-41.667 41.667-41.668-41.667-41.667 41.667-33.735-33.736c-.977 8.489-1.492 16.532-1.492 23.954 0 88.494 71.736 160.228 160.229 160.228 88.49 0 160.229-71.734 160.229-160.228 0-7.422-.515-15.464-1.492-23.951l-33.735 33.733-41.667-41.667z"/><path style="opacity:.1;fill:#222" d="m174.988 282.862-41.668-41.667-41.667 41.667-33.735-33.736c-.977 8.489-1.492 16.532-1.492 23.954 0 88.494 71.736 160.228 160.229 160.228h.001V241.195l-41.668 41.667z"/></svg>